<?xml version="1.0" encoding="UTF-8" standalone="no"?>
<!-- Generated by SVGMaker - https://svgmaker.io -->

<!-- Prompt: la coda di una balena che esce da 2 onde -->

<svg
   version="1.1"
   style="display: block;"
   viewBox="0 0 2048 2048"
   width="1024"
   height="1024"
   id="svg4"
   sodipodi:docname="caravella-icon.svg"
   inkscape:version="1.4.2 (ebf0e940, 2025-05-08)"
   xmlns:inkscape="http://www.inkscape.org/namespaces/inkscape"
   xmlns:sodipodi="http://sodipodi.sourceforge.net/DTD/sodipodi-0.dtd"
   xmlns="http://www.w3.org/2000/svg"
   xmlns:svg="http://www.w3.org/2000/svg">
  <defs
     id="defs4" />
  <sodipodi:namedview
     id="namedview4"
     pagecolor="#ffffff"
     bordercolor="#000000"
     borderopacity="0.25"
     inkscape:showpageshadow="2"
     inkscape:pageopacity="0.0"
     inkscape:pagecheckerboard="0"
     inkscape:deskcolor="#d1d1d1"
     inkscape:zoom="0.68"
     inkscape:cx="469.85294"
     inkscape:cy="565.44118"
     inkscape:window-width="1512"
     inkscape:window-height="916"
     inkscape:window-x="0"
     inkscape:window-y="38"
     inkscape:window-maximized="1"
     inkscape:current-layer="svg4" />
  <path
     fill="rgb(23,72,81)"
     d="m 409.77153,544.23923 c 6.861,-0.368 11.802,0.778 17.245,5.216 8.134,6.632 13.167,16.527 19.676,24.646 17.498,21.827 42.669,38.001 67.981,49.232 53.21,23.61 113.005,28.561 170.109,35.54 61.906,7.565 125.78,17.594 183.042,43.404 54.648,24.634 102.571,62.795 132.18307,115.669 9.63,17.185 16.75,35.139 23.69,53.513 3.06,-11.315 7.71,-22.487 12.6,-33.125 57.52,-125.232 187.15,-161.162 312.01,-177.83 56.16,-7.497 114.42,-11.178 168.1,-30.598 26.55,-9.604 50.7,-23.01 71.49,-42.231 13.15,-12.15 24.37,-37.085 41.38,-42.88 4.12,-1.404 8.4,-1.513 12.29,0.621 6.1,3.345 9.69,10.836 11.72,17.169 11.89,37.204 3.21,107.236 -6.96,145.536 -38.74,145.912 -148.29,232.191 -282.44,288.886 -27.55,11.64297 -55.81,21.76497 -83.8,32.29307 -49.48,18.608 -128.82,44.589 -153.94,94.369 -5.38,10.676 -7.81,22 -8,33.922 -0.41,25.231 5.81,52.537 10.89,77.169 15.93,77.222 38.67,152.042 63.13,226.902 -43.95,35.97 -266.45207,53.81 -257.02607,34.94 16.414,-32.85 24.44,-70.35 30.24,-106.42 1.123,-6.99 3.059,-14.67 2.764,-21.7 -1.453,0.73 -6.355,19.93 -7.335,22.86 -11.243,33.66 -25.471,65.3 -44.615,95.22 -7.18,-8.72 -13.617,-17.96 -21.113,-26.46 -11.279,-12.78 -23.996,-23.6 -37.009,-34.54 1.889,-5.29 3.744,-10.59 5.564,-15.91 21.485,-62.98 73.521,-202.458 63.97,-265.932 -8.96,-59.554 -98.606,-91.329 -147.779,-110.027 -24.865,-9.2481 -49.667,-18.6661 -74.404,-28.2551 -36.249,-14.31397 -71.582,-30.35797 -105.41,-49.76897 -73.162,-41.979 -135.08,-99.975 -172.437,-176.34 -27.491,-56.198 -41.73,-119.676 -38.033,-182.322 0.695,-11.781 1.063,-24.743 5.141,-35.901 3.095,-8.469 6.979,-13.034 15.086,-16.867 z"
     id="path2"
     style="fill:#f9f9f9"
     sodipodi:nodetypes="cscccccccsccccccsccccccccccccccccccccc" />
</svg>
