<?xml version="1.0" encoding="UTF-8" standalone="no"?>
<!-- Generated by SVGMaker - https://svgmaker.io -->

<!-- Prompt: la coda di una balena che esce da 2 onde -->

<svg
   version="1.1"
   style="display: block;"
   viewBox="0 0 2048 2048"
   width="1024"
   height="1024"
   id="svg4"
   sodipodi:docname="caravella-icon.svg"
   inkscape:version="1.4.2 (ebf0e940, 2025-05-08)"
   xmlns:inkscape="http://www.inkscape.org/namespaces/inkscape"
   xmlns:sodipodi="http://sodipodi.sourceforge.net/DTD/sodipodi-0.dtd"
   xmlns="http://www.w3.org/2000/svg"
   xmlns:svg="http://www.w3.org/2000/svg">
  <defs
     id="defs4" />
  <sodipodi:namedview
     id="namedview4"
     pagecolor="#ffffff"
     bordercolor="#000000"
     borderopacity="0.25"
     inkscape:showpageshadow="2"
     inkscape:pageopacity="0.0"
     inkscape:pagecheckerboard="0"
     inkscape:deskcolor="#d1d1d1"
     inkscape:zoom="0.73"
     inkscape:cx="508.21918"
     inkscape:cy="507.53425"
     inkscape:window-width="1512"
     inkscape:window-height="916"
     inkscape:window-x="0"
     inkscape:window-y="38"
     inkscape:window-maximized="1"
     inkscape:current-layer="svg4" />
  <path
     transform="translate(0,0)"
     fill="rgb(23,72,81)"
     d="M 411.004 290.107 C 417.865 289.739 422.806 290.885 428.249 295.323 C 436.383 301.955 441.416 311.85 447.925 319.969 C 465.423 341.796 490.594 357.97 515.906 369.201 C 569.116 392.811 628.911 397.762 686.015 404.741 C 747.921 412.306 811.795 422.335 869.057 448.145 C 923.705 472.779 971.628 510.94 1001.24 563.814 C 1010.87 580.999 1017.99 598.953 1024.93 617.327 C 1027.99 606.012 1032.64 594.84 1037.53 584.202 C 1095.05 458.97 1224.68 423.04 1349.54 406.372 C 1405.7 398.875 1463.96 395.194 1517.64 375.774 C 1544.19 366.17 1568.34 352.764 1589.13 333.543 C 1602.28 321.393 1613.5 296.458 1630.51 290.663 C 1634.63 289.259 1638.91 289.15 1642.8 291.284 C 1648.9 294.629 1652.49 302.12 1654.52 308.453 C 1666.41 345.657 1657.73 415.689 1647.56 453.989 C 1608.82 599.901 1499.27 686.18 1365.12 742.875 C 1337.57 754.518 1309.31 764.64 1281.32 775.168 C 1231.84 793.776 1152.5 819.757 1127.38 869.537 C 1122 880.213 1119.57 891.537 1119.38 903.459 C 1118.97 928.69 1125.19 955.996 1130.27 980.628 C 1146.2 1057.85 1168.94 1132.67 1193.4 1207.53 C 1149.45 1243.5 1106.31 1279.64 1060.5 1313.3 C 992.687 1363.12 919.003 1412.52 831.464 1412.19 C 796.704 1412.05 755.451 1405.06 729.96 1379.5 C 720.081 1367.21 714.673 1352.41 716.583 1336.52 C 719.818 1309.59 741.863 1286.84 762.118 1270.92 C 752.426 1263.78 741.64 1258.25 730.18 1254.56 C 704.361 1246.1 677.253 1246.15 650.631 1250.17 C 617.138 1255.37 584.782 1266.26 554.966 1282.39 C 533.33 1294.21 514.069 1309.34 494.115 1323.69 C 460.684 1347.72 426.702 1371.46 389.861 1390.04 C 345.313 1412.52 294.105 1428.76 244.719 1412.22 C 222.714 1404.85 199.915 1390.72 189.716 1368.99 C 186.89 1362.97 184.459 1355.27 187.139 1348.78 C 189.175 1343.85 194.244 1341.01 199.28 1340.04 C 207.2 1338.52 217.436 1341.73 225.722 1341.75 C 254.363 1341.82 283.374 1331.23 308.181 1317.59 C 342.013 1299 373.88 1274.57 403.863 1250.39 C 444.413 1217.7 476.376 1189.16 525.526 1168.87 C 600.345 1137.98 690.34 1137.74 764.995 1169.02 C 824.061 1193.76 878.566 1235.78 903.334 1296.27 C 914.296 1278.31 926.948 1261.34 936.374 1242.47 C 952.788 1209.62 960.814 1172.12 966.614 1136.05 C 967.737 1129.06 969.673 1121.38 969.378 1114.35 C 967.925 1115.08 963.023 1134.28 962.043 1137.21 C 950.8 1170.87 936.572 1202.51 917.428 1232.43 C 910.248 1223.71 903.811 1214.47 896.315 1205.97 C 885.036 1193.19 872.319 1182.37 859.306 1171.43 C 861.195 1166.14 863.05 1160.84 864.87 1155.52 C 886.355 1092.54 938.391 953.062 928.84 889.588 C 919.88 830.034 830.234 798.259 781.061 779.561 C 756.196 770.313 731.394 760.895 706.657 751.306 C 670.408 736.992 635.075 720.948 601.247 701.537 C 528.085 659.558 466.167 601.562 428.81 525.197 C 401.319 468.999 387.08 405.521 390.777 342.875 C 391.472 331.094 391.84 318.132 395.918 306.974 C 399.013 298.505 402.897 293.94 411.004 290.107 z"
     id="path2"
     style="fill:#f9f9f9" />
  <path
     transform="translate(0,0)"
     fill="rgb(23,72,81)"
     d="M 1414.64 1156.43 C 1452.32 1153.08 1496.96 1160.32 1532.04 1173.54 C 1576.28 1190.2 1618.81 1226.17 1638.42 1269.68 C 1645.64 1285.7 1653.96 1314.29 1647 1331.27 C 1645.51 1334.9 1642.95 1338.09 1639.15 1339.45 C 1629.48 1342.91 1616.89 1332.89 1608.29 1329.37 C 1600.34 1326.12 1591.34 1325.12 1583.35 1328.78 C 1574.12 1333.01 1566.52 1342.47 1563.34 1352 C 1559.48 1363.6 1560.43 1377.58 1566.02 1388.46 C 1578.36 1412.53 1614.11 1427.26 1638.14 1435.16 C 1687.73 1451.45 1756.38 1448.71 1803.17 1423.87 C 1809.58 1420.45 1815.71 1416.52 1821.5 1412.14 C 1826.96 1407.94 1833.07 1401.27 1839.3 1398.54 C 1843.28 1396.79 1848.69 1396.99 1852.66 1398.67 C 1857.66 1400.79 1860.94 1405.42 1862.63 1410.44 C 1865.15 1417.93 1863.71 1425.35 1860.07 1432.21 C 1857.08 1437.86 1851.51 1443 1847.17 1447.69 C 1826.3 1470.22 1803.62 1486.28 1774.12 1495.69 C 1703.9 1518.09 1614.84 1503.07 1550.13 1469.5 C 1513.73 1450.62 1476.08 1419.94 1463.47 1379.35 C 1455.57 1353.9 1456.67 1319.37 1469.47 1295.66 C 1480.61 1275.02 1499.82 1263.14 1521.76 1256.63 C 1482.74 1245.85 1441.79 1251.09 1404.75 1266.54 C 1365.31 1282.99 1330.98 1309.63 1297.49 1335.7 C 1232.49 1386.28 1165.39 1448.31 1092.08 1485.67 C 1043.68 1509.92 990.635 1523.47 936.535 1525.41 C 1079.67 1579.22 1184.83 1469.97 1288.23 1390.79 C 1329.62 1359.1 1373.2 1330.24 1421.04 1309.24 C 1418.93 1324.7 1418.76 1341.42 1418.91 1357.06 C 1419.34 1400.28 1446.5 1439.13 1476.39 1468.25 C 1531.27 1521.71 1604.67 1546.16 1678.71 1558.39 C 1707.56 1563.15 1737.22 1566.42 1766.49 1565.93 C 1778.97 1565.72 1792.58 1565.16 1804.84 1562.61 C 1812.85 1560.95 1821.86 1556.52 1829.99 1556.65 C 1834.7 1556.72 1839.01 1559.49 1842.18 1562.81 C 1845.91 1566.73 1848.2 1571.8 1847.87 1577.28 C 1847.13 1589.43 1834.69 1599.01 1826.42 1606.79 C 1798.66 1631.24 1756.25 1648.03 1719.53 1652.91 C 1664.87 1660.16 1599.12 1648.64 1549.18 1625.82 C 1473 1591.01 1423.52 1533.4 1331.29 1543.48 C 1191.38 1558.76 1152.17 1669.67 984.394 1646.02 C 954.462 1641.92 925.307 1633.39 897.892 1620.69 C 811.737 1581.31 751.762 1519.91 650.282 1519.64 C 583.064 1519.46 532.502 1542.57 473.533 1570.71 C 453.783 1580.14 433.541 1590.35 412.405 1596.26 C 390.164 1602.47 367.416 1604.3 344.41 1604.07 C 289.073 1603.52 235.752 1585.68 196.456 1545.1 C 190.554 1539.01 184.692 1531.03 185.214 1522.1 C 185.556 1516.25 188.745 1511.85 193.091 1508.17 C 195.754 1505.92 198.162 1505.52 201.601 1505.24 C 210.381 1504.52 219.362 1506.15 228.16 1506.45 C 240.92 1506.88 254.739 1505.71 267.366 1503.62 C 305.432 1497.32 345.237 1478.13 378.437 1458.83 C 466.924 1407.39 534.009 1318.37 635.252 1289.6 C 653.01 1284.55 671.361 1281.29 689.847 1282.78 C 682.671 1304.82 672.849 1323.16 674.513 1347.2 C 676.272 1372.62 688.839 1394.41 707.89 1410.97 C 738.485 1437.58 774.527 1447.84 814.232 1451.97 C 907.716 1461.69 986.814 1418.4 1059.7 1365.15 C 1084.32 1347.15 1108.42 1328.47 1131.99 1309.11 C 1218.35 1237.58 1296.95 1165.29 1414.64 1156.43 z"
     id="path3"
     style="fill:#f9f9f9" />
</svg>
